<svg xmlns="http://www.w3.org/2000/svg" viewBox="0 0 384 512">
  <path fill="black" d="M318.7 268.7c-.5-51.2 41.8-75.9 43.7-77.1-23.9-35-61-39.7-74.1-40.3-31.5-3.2-61.5 18.6-77.4 18.6-15.7 0-40.6-18.1-66.8-17.6-34.3.5-66 20.1-83.7 50.9-35.7 62-9.1 153.5 25.6 203.7 17 24.7 37.4 52.5 64.1 51.5 25.4-1 35-16.6 65.6-16.6s39.6 16.6 66.9 16.1c27.6-.4 45.2-25.2 62.2-50 19.5-28.5 27.5-56 27.9-57.5-.6-.3-53.5-20.5-54-80.7zM259.1 81.3c14.6-17.7 24.5-42.3 21.8-66.9-21.1.9-46.5 14.1-61.6 31.8-13.5 15.6-25.4 40.6-22.2 64.5 23.6 1.8 47.9-12 62-29.4z"/>
</svg>
