<svg xmlns="http://www.w3.org/2000/svg" viewBox="0 0 488 512">
  <path fill="#4285F4" d="M488 261.8c0-17.7-1.6-35-4.8-51.8H249v98.2h134.1c-5.8 31.4-23.5 57.9-50.1 75.7v62.7h80.8c47.3-43.6 74.2-107.9 74.2-184.8z"/>
  <path fill="#34A853" d="M249 492c67.7 0 124.6-22.4 166.1-61l-80.8-62.7c-22.4 15-51.2 23.7-85.3 23.7-65.6 0-121.1-44.3-141-103.7h-82.5v65.2C67.7 435 151.7 492 249 492z"/>
  <path fill="#FBBC05" d="M108 288.3c-4.8-15-7.5-30.9-7.5-47.3s2.7-32.3 7.5-47.3V128H25.5C9.2 160.5 0 198 0 241s9.2 80.5 25.5 113H108v-65.7z"/>
  <path fill="#EA4335" d="M249 97.6c36.8 0 69.9 12.7 95.9 37.7l71.6-71.6C373.6 24.7 316.7 0 249 0 151.7 0 67.7 57 25.5 128l82.5 65.7C127.9 141.9 183.4 97.6 249 97.6z"/>
</svg>
